# xmcd
#
# Track frame offsets:
# 150
# 17182
# 38058
# 58355
# 74011
# 92124
# 105707
# 128632
# 143111
# 163708
# 180835
# 196365
# 212729
# 227964
# 248560
# 270268
# 297381
# 316661
# 338358
#
# Disc length: 4702 seconds
#
#
# Revision: 0
# Processed by: cddbd v1.5.2PL0 Copyright (c) Steve Scherf et al.
# Submitted via: FreeRIP 2.95 
#
DISCID=0f125c13
DTITLE=Renato Teixeira - Renato Teixeira
DYEAR=2007
DGENRE=Country
TTITLE0=Amanheceu, peguei a viola
TTITLE1=Chalana
TTITLE2=Rio de Lágrimas
TTITLE3=Raízes
TTITLE4=Romaria
TTITLE5=O Cio da Terra
TTITLE6=De Papo pro Á
TTITLE7=Rio de Lágrimas
TTITLE8=O Violeiro Toca
TTITLE9=Meu Veneno
TTITLE10=Amora
TTITLE11=Tocando em Frente
TTITLE12=Tocando em Frente
TTITLE13=Jardim da Fantasia
TTITLE14=Vaca Estrela e Boi Fubá
TTITLE15=Cuitelinho
TTITLE16=Quebra de Milho
TTITLE17=Chuá Chuá
TTITLE18=Rapaz Caipira
EXTD=
EXTT0=
EXTT1=
EXTT2=
EXTT3=
EXTT4=
EXTT5=
EXTT6=
EXTT7=
EXTT8=
EXTT9=
EXTT10=
EXTT11=
EXTT12=
EXTT13=
EXTT14=
EXTT15=
EXTT16=
EXTT17=
EXTT18=
PLAYORDER=
